<svg xmlns="http://www.w3.org/2000/svg" viewBox="0 0 122.88 122.88" xml:space="preserve">
  <path d="m121.3 44.9-76.4 76.4c-.03.03-.07.06-.12.08-.5.48-1.07.84-1.67 1.09-.66.27-1.37.41-2.07.41-.7 0-1.41-.13-2.07-.41-.64-.26-1.23-.65-1.75-1.17l-10.04-10.04c-.32-.32-.5-.74-.54-1.18-.04-.42.06-.86.29-1.24l.02-.04c.59-.91 1.01-1.89 1.26-2.91.25-1.04.32-2.11.22-3.17v-.01c-.11-1.04-.39-2.08-.85-3.05-.44-.93-1.05-1.8-1.82-2.58-.77-.77-1.65-1.38-2.58-1.82-.97-.46-2.01-.75-3.05-.85-1.03-.11-2.09-.03-3.11.21-1 .24-1.97.65-2.86 1.22-.38.29-.85.41-1.3.38-.45-.03-.88-.22-1.22-.55-.88-.81-10.06-9.96-10.06-10.06-.52-.52-.91-1.11-1.17-1.75-.28-.64-.41-1.35-.41-2.05 0-.71.13-1.41.41-2.07.26-.63.64-1.21 1.15-1.73L77.98 1.58c.52-.52 1.12-.91 1.75-1.17C80.39.13 81.1 0 81.81 0s1.41.13 2.07.41c.64.26 1.23.65 1.75 1.17l10.11 10.11c.3.3.49.71.54 1.13.05.41-.03.84-.25 1.22l-.02.03c-.55.88-.94 1.84-1.15 2.83-.22 1.02-.27 2.07-.15 3.1v.01c.13 1.01.42 2.01.88 2.95.44.9 1.04 1.75 1.8 2.51.74.76 1.58 1.35 2.48 1.79.94.46 1.95.75 2.97.88 1.01.12 2.03.08 3.03-.13.99-.21 1.94-.57 2.83-1.09.39-.25.85-.36 1.3-.32.42.04.84.21 1.17.53.88.81 10.13 10.04 10.13 10.13.52.52.91 1.11 1.17 1.75.27.66.41 1.37.41 2.07 0 .71-.13 1.41-.41 2.07-.26.62-.64 1.21-1.15 1.73l-.02.02zm-44.15 9.91 2.93 2.93c.15.15.15.39 0 .54-.05.05-.12.09-.19.1L46.1 68.41c-.14.04-.28 0-.38-.1l-2.93-2.93c-.15-.15-.15-.39 0-.54.05-.05.12-.09.19-.1l33.79-10.03c.14-.04.29.01.38.1zm-23.39-12.1c.49-.49 1.03-.92 1.62-1.29.58-.36 1.2-.66 1.86-.89.68-.24 1.36-.36 2.05-.37.69-.01 1.38.09 2.07.29l.02.01c.68.2 1.35.51 1.99.91.65.41 1.27.91 1.87 1.51.89.89 1.56 1.81 2.01 2.77.45.97.69 1.98.69 3.02.01 1.04-.21 2.03-.63 2.98-.43.94-1.06 1.84-1.91 2.68-.85.85-1.75 1.49-2.7 1.92-.95.43-1.95.64-2.99.64-1.04-.01-2.04-.24-3.02-.69-.96-.45-1.89-1.12-2.77-2.01-.6-.6-1.11-1.23-1.51-1.87-.41-.65-.71-1.32-.92-2.01-.21-.69-.31-1.38-.29-2.07.01-.69.14-1.37.37-2.05l.01-.02c.23-.66.52-1.27.89-1.85.35-.57.79-1.11 1.29-1.61zm4.43 4.5c-.56.56-.99 1.08-1.3 1.56-.3.47-.48.9-.54 1.29-.04.23-.02.45.05.65.07.21.21.41.4.6.19.19.39.32.59.39.2.07.41.08.63.04h.02c.39-.06.81-.24 1.28-.54.49-.31 1.01-.74 1.56-1.3.55-.55.98-1.07 1.29-1.55.3-.47.48-.9.55-1.3.04-.22.02-.43-.05-.62-.07-.2-.21-.4-.4-.6-.2-.2-.4-.33-.6-.41-.2-.07-.41-.09-.64-.06-.39.06-.82.24-1.29.54-.47.32-.99.75-1.55 1.31zm-.73 21.43c.5-.5 1.04-.93 1.62-1.3.58-.37 1.2-.67 1.86-.9.67-.23 1.35-.36 2.04-.37.69-.01 1.38.08 2.08.29.69.21 1.37.51 2.01.92.65.4 1.27.9 1.87 1.5.89.89 1.56 1.82 2.02 2.79.46.97.69 1.98.69 3.03 0 1.04-.21 2.04-.64 2.99-.43.94-1.07 1.84-1.91 2.69-.85.85-1.75 1.49-2.69 1.91-.95.43-1.95.64-2.99.64-1.04 0-2.05-.23-3.03-.69-.97-.45-1.9-1.12-2.79-2.02l-.02-.02c-.59-.6-1.09-1.21-1.48-1.85-.4-.65-.71-1.32-.92-2.01l-.01-.03c-.2-.69-.29-1.37-.28-2.05.01-.69.14-1.37.37-2.04.23-.66.53-1.28.9-1.86.37-.58.8-1.12 1.3-1.62zm4.43 4.5c-.56.56-1 1.09-1.31 1.57-.3.47-.48.9-.55 1.3-.04.22-.02.43.05.62.07.2.21.4.4.6.19.19.39.33.6.4.2.07.41.09.64.06.4-.07.83-.25 1.3-.55.49-.31 1.01-.75 1.57-1.31s.99-1.08 1.31-1.57c.3-.47.49-.91.56-1.31v-.02c.03-.21.01-.42-.06-.61-.07-.21-.21-.41-.4-.6-.19-.19-.39-.33-.6-.4-.2-.07-.41-.08-.63-.04h-.01c-.4.07-.83.25-1.29.54-.5.33-1.02.77-1.58 1.32zM19.4 65.71l37.81 37.81 46.29-46.29-37.81-37.81L19.4 65.71zm35.1 40.52L16.69 68.42 4.35 80.76c-.14.14-.25.31-.32.49-.08.2-.12.4-.12.6 0 .21.04.41.11.6.07.17.17.33.31.47l9.02 9.02c1.07-.53 2.21-.92 3.36-1.14 1.26-.24 2.55-.3 3.82-.17 1.49.13 2.95.53 4.31 1.17 1.34.63 2.59 1.5 3.68 2.6 1.09 1.09 1.94 2.33 2.56 3.65.65 1.39 1.06 2.86 1.21 4.35.13 1.27.08 2.56-.17 3.81-.22 1.16-.6 2.29-1.14 3.37l9 9c.14.14.31.25.49.32.19.08.4.12.6.12.21 0 .41-.04.6-.11.18-.07.34-.18.49-.33l12.34-12.35zm13.9-89.52 37.81 37.81 12.36-12.36c.04-.04.09-.07.15-.09.09-.11.16-.23.21-.36.08-.2.12-.4.12-.6 0-.21-.04-.41-.11-.6-.07-.17-.17-.33-.31-.47l-9.1-9.1c-1.07.48-2.2.82-3.34 1.01-1.23.2-2.49.23-3.73.08-1.46-.17-2.87-.58-4.21-1.23-1.29-.63-2.49-1.47-3.57-2.55-1.07-1.07-1.91-2.28-2.54-3.56-.65-1.34-1.06-2.77-1.23-4.21-.15-1.24-.12-2.5.08-3.73.19-1.14.53-2.27 1.01-3.34l-9.08-9.08c-.14-.14-.31-.25-.49-.32-.19-.08-.4-.12-.6-.12-.21 0-.41.04-.6.11-.18.07-.34.18-.49.33L68.4 16.71z"/>
</svg>