<svg xmlns="http://www.w3.org/2000/svg" viewBox="0 0 375 374.999991" version="1.2">
  <defs>
    <clipPath id="a">
      <path d="M174 11.132812h193.363281V201H174Zm0 0"/>
    </clipPath>
    <clipPath id="b">
      <path d="M11.863281 28H64v52H11.863281Zm0 0"/>
    </clipPath>
  </defs>
  <path d="M70.082031 113.28125c79.554688-93.230469 259.722657 69.546875 110.480469 155.480469C90.109375 323.039062-.34375 200.921875 62.972656 124.027344l7.105469-10.746094" fill="#d98f89"/>
  <path d="M352.679688 353.972656c-20.0625 29.941406-78.242188-11.480468-37.566407-41.664062 24.574219-18.929688 55.164063 13.660156 39.277344 38.277344l-1.710937 3.386718" fill="#3b625f"/>
  <g clip-path="url(#a)">
    <path d="M178.609375 109.734375c-2.871094-19.160156.964844-38.398437 11.886719-54.496094 10.394531-15.300781 26.125-26.371093 43.078125-33.328125 33.632812-13.796875 77.226562-12.605468 105.371093 12.566406 15.140626 13.539063 22.984376 32.765626 25.050782 52.691407 1.371094 13.269531.199218 26.71875-2.226563 39.789062-2.46875 13.375-6.917969 26.035157-14.75 37.246094-28.855469 41.355469-90.085937 43.117187-128.910156 15.582031-11.765625-8.339844-21.398437-19.59375-27.871094-32.480468-5.929687-11.804688-8.078125-24.941407-11.628906-37.570313-.300781-1.074219-3.085937-.351563-2.785156.699219 2.921875 10.417968 4.800781 21.246094 8.8125 31.3125 4.503906 11.304687 11.460937 21.539062 20.105469 30.082031 16.636718 16.453125 39.40625 25.882813 62.554687 27.90625 22.65625 1.988281 46.226563-3.597656 64.628906-17.203125 21.300781-15.757812 30.726563-39.726562 34.148438-65.253906 2.96875-22.175782 1.257812-45.652344-9.828125-65.492188-8.835938-15.820312-23.4375-27.304687-40.210938-33.777344-34.011718-13.113281-75.683594-6.265624-105.296875 14.332032-11.933593 8.308594-22.058593 19.304687-28.480469 32.414062-6.941406 14.183594-8.757812 30.148438-6.433593 45.679688.152343 1.058594 2.953125.429687 2.785156-.699219" fill="#3b625f"/>
  </g>
  <path d="M185.175781 88.472656c1.769531-19.753906 10.757813-37.601562 26.277344-50.082031 14.863281-11.957031 34.03125-17.746094 52.859375-18.925781 37.277344-2.335938 79.347656 14.832031 92.425781 52.296875 7.855469 22.496093 3.097657 47.085937-5.675781 68.550781-5.5 13.460938-12.792969 25.847656-23.769531 35.566406-9.519531 8.429688-21.246094 13.960938-33.648438 16.570313-24.582031 5.183593-50.90625-1.886719-71.222656-16.140625-21.476563-15.058594-35.335937-38.921875-36.902344-65.167969-.453125-7.578125-.070312-15.273437-.34375-22.890625-.039062-1.007812-2.839843-.453125-2.792969.699219.398438 11.128906-.367187 22.375 1.578126 33.390625 2.1875 12.441406 7.449218 24.214844 14.84375 34.433594 14.34375 19.835937 37.015624 33.105468 60.929687 37.492187 23.386719 4.289063 48.007813-.589844 66.875-15.347656 10.707031-8.363281 18.730469-19.714844 24.277344-32.027344 5.484375-12.179687 9.863281-24.796875 11.734375-38.066406 2.808594-19.90625-1.003906-40.316407-13.070313-56.636719-10.953125-14.808594-27.503906-24.59375-44.921875-29.875-34.761718-10.542969-78.382812-4.324219-103.808594 23.304688-10.921874 11.867187-17.003906 27.140624-18.4375 43.117187-.117187 1.234375 2.699219.765625 2.792969-.261719" fill="#3b625f"/>
  <path d="M225.289062 105.960938c-2.921874-20.214844 8.667969-37.4375 26.753907-45.734376 16.78125-7.691406 38.28125-7.753906 53.597656 3.332032 19.265625 13.945312 20.035156 43.246094 11.804687 63.542968-10.039062 24.777344-39.921874 31.640626-62.8125 21.246094-8.488281-3.855468-15.699218-10.109375-20.761718-17.925781-4.839844-7.46875-6.25-16.046875-8.582032-24.460937-.300781-1.074219-3.089843-.351563-2.792968.707031 1.390625 5.007812 2.324218 10.1875 4.027344 15.09375 1.996093 5.738281 5.191406 11.023437 9.164062 15.597656 7.609375 8.757813 18.457031 14.351563 29.761719 16.550781 22.917969 4.457032 46.765625-6.242187 55.378906-28.550781 7.761719-20.085937 6.226563-47.714844-11.515625-62.0625-14.117188-11.417969-34.460938-12.347656-51.226562-7.101563C235.8125 63.160156 219 82.433594 222.496094 106.667969c.152344 1.050781 2.953125.421875 2.792968-.707031" fill="#3b625f"/>
  <path d="M232.722656 95.375c1.96875-21.328125 20.578125-33.527344 40.933594-33.46875 19.40625.050781 38.957031 11.355469 42.207031 31.660156 1.996094 12.472656-2.421875 26.570313-9.09375 37.019532-7.304687 11.421874-20.058593 17.105468-33.40625 16.113281-12.570312-.933594-24.457031-7.707031-32.144531-17.601563-3.917969-5.046875-6.457031-11.015625-7.683594-17.269531-1.074218-5.453125-.621094-11.136719-.8125-16.675781-.039062-1.003906-2.839844-.457032-2.792968.699218.199218 5.570313-.152344 11.167969.8125 16.675782 1.089843 6.175781 3.78125 11.988281 7.441406 17.050781 7.070312 9.796875 18.375 16.253906 30.179687 18.3125 11.183594 1.945313 23.300781-.445313 32.292969-7.570313 10.367188-8.226562 16.050781-21.832031 17.960938-34.671874 1.472656-9.894532-.398438-20.03125-6.289063-28.21875-5.308594-7.382813-13.507813-12.222657-22.074219-14.875C273.132812 57.25 251.742188 60.550781 239.1875 74.042969c-5.515625 5.925781-8.523438 13.59375-9.265625 21.59375-.109375 1.226562 2.699219.761719 2.800781-.261719" fill="#3b625f"/>
  <path d="M199.832031 67.625C207.5 46.847656 223.960938 31.75 245.375 26.074219c20.535156-5.441407 43.023438-2.261719 62.289062 6.171875 18.878907 8.261718 35.8125 22.550781 44.140626 41.710937 9.628906 22.125 4.503906 46.394531-7.214844 66.628907-7.933594 13.691406-18.441406 26.871093-31.769532 35.601562-12.089843 7.90625-26.453124 11.414062-40.820312 10.613281-27.78125-1.546875-53.484375-18.984375-67.710938-42.464843-7.464843-12.316407-11.445312-26.644532-11.34375-41.050782.074219-12.257812 4.15625-23.835937 6.886719-35.660156.261719-1.152344-2.5625-.765625-2.792969.261719-2.738281 11.863281-6.671874 23.371093-6.886718 35.660156-.253906 13.660156 3.4375 27.054687 9.910156 39.019531 12.738281 23.546875 36.984375 40.808594 63.390625 45.09375 12.757813 2.070313 25.835937.777344 37.921875-3.78125 13.921875-5.238281 24.929688-14.980468 34.1875-26.386718 15.644531-19.28125 27.328125-43.730469 23.421875-69.097657-6.433594-41.90625-52.1875-66.488281-91.371094-66.644531-14.695312-.0625-29.453125 3.339844-42.132812 10.890625-13.421875 8-23.070313 20.6875-28.441407 35.246094-.382812 1.039062 2.425782.734375 2.792969-.261719" fill="#3b625f"/>
  <path d="M244.6875 105.945312c-2.523438-21.160156 20.085938-34.835937 39.132812-31.351562 9.625 1.761719 16.894532 8.414062 19.289063 17.90625 3.136719 12.441406-.707031 28.535156-11.253906 36.367188-8.980469 6.664062-21.542969 6.804687-31.332031 1.894531-4.808594-2.410157-8.726563-6.230469-11.449219-10.847657-2.523438-4.28125-3.167969-9.234374-4.386719-13.96875-.285156-1.074218-3.070312-.375-2.792969.699219 1.335938 5.183594 2.195313 10.292969 4.960938 14.980469 2.921875 4.949219 7.570312 8.699219 12.710937 11.136719 9.980469 4.726562 22.128906 4.019531 31.660156-1.371094 18.316407-10.355469 22.582032-44.089844 2.960938-55.289063-21.136719-12.066406-55.382812 4.589844-52.292969 30.542969.121094 1.042969 2.921875.4375 2.792969-.699219" fill="#3b625f"/>
  <path d="M238.335938 96.457031c2.078124-21.847656 24.105468-31.472656 43.847656-27.765625 9.320312 1.75 18.15625 6.574219 23.585937 14.492188 6.527344 9.507812 5.660157 21.589844 2.085938 32.019531-3.328125 9.710937-9.003907 18.433594-18.621094 22.769531-8.285156 3.726563-17.878906 3.089844-26.246094.035156-8.476562-3.097656-15.710937-9.273437-20.1875-17.066406-4.480469-7.777344-4.152343-16.070312-4.464843-24.699218-.046876-1.011719-2.839844-.460938-2.792969.699218.207031 5.785156-.128907 11.476563 1.367187 17.136719 1.5625 5.929687 4.898438 11.296875 9.117188 15.6875 8.140625 8.464844 20.035156 12.871094 31.6875 12.425781 12.292968-.460937 23.039062-7.472656 28.976562-18.125 5.628906-10.097656 8.773438-22.890625 5.382813-34.203125-5.136719-17.1875-24.429688-24.480469-40.894531-23.601562-17.574219.933593-33.886719 12.011719-35.644532 30.457031-.113281 1.234375 2.699219.765625 2.800782-.261719" fill="#3b625f"/>
  <path d="M254.058594 94.171875c8.507812-22.296875 45.9375-11.425781 44.226562 11.222656-.507812 6.679688-4.5625 12.972657-9.097656 17.671875-5.730469 5.945313-14.121094 7.011719-21.597656 4.027344-6.496094-2.59375-11.667969-8.078125-14.167969-14.558594-2.4375-6.304687-.8125-12.109375.636719-18.363281.261718-1.148437-2.5625-.765625-2.800782.261719-1.433593 6.234375-2.84375 11.675781-.894531 18.019531 1.902344 6.21875 6.585938 11.320313 12.101563 14.59375 5.292968 3.140625 11.589844 4.089844 17.597656 2.917969 6.871094-1.351563 11.949219-6.253906 15.851562-11.785156 6.589844-9.332032 7.234376-21.0625-1.089843-29.476563-6.957031-7.027344-17.847657-9.800781-27.410157-7.953125-7.527343 1.453125-13.4375 6.570312-16.15625 13.683594-.390624 1.027344 2.417969.726562 2.800782-.261719" fill="#3b625f"/>
  <path d="M213.738281 54.179688c13.550781-20.15625 35.726563-29.722657 59.703125-27.328126 22.765625 2.273438 44.59375 14.289063 59.8125 31.1875C348.363281 74.839844 356.0625 97.5 350.164062 119.761719c-3.550781 13.390625-11.710937 25.082031-21.335937 34.832031-11.820313 11.972656-26.179687 22.367188-42.800781 26.164062-29.453125 6.710938-58.738282-10.070312-74.929688-34.082031-8.160156-12.101562-12.960937-26.394531-13.660156-40.96875-.359375-7.621093.660156-15.269531 2.707031-22.605469 2.058594-7.363281 5.839844-13.453124 9.214844-20.1875 1.457031-2.910156 2.921875-5.824218 4.378906-8.734374.636719-1.273438-2.15625-1.074219-2.609375-.179688-5.558594 11.101562-12.117187 21.488281-14.886718 33.757812-3.160157 14.03125-1.679688 28.804688 3.207031 42.25 9.425781 25.941407 32.359375 47.230469 59.648437 52.652344 30.328125 6.019532 58.730469-11.199218 77.738282-33.726562 15.554687-18.433594 22.703124-42.042969 14.863281-65.421875-13.636719-40.664063-64.972657-68.433594-106.253907-55.6875C231.203125 32.226562 219.398438 41.707031 211.128906 54c-.765625 1.140625 2.054688 1.003906 2.609375.179688" fill="#3b625f"/>
  <path d="M211.957031 74.007812c7.839844-21.148437 26.203125-34.335937 48.414063-36.683593 21.070312-2.226563 43.191406 4.648437 59.84375 17.597656 17.035156 13.257813 26.484375 33.742187 22.925781 55.320313-2.234375 13.609374-9.152344 26.011718-17.40625 36.863281-9.699219 12.75-21.917969 22.746093-37.851563 26.210937-25.894531 5.625-52.875-8.261718-68.238281-28.75-7.824219-10.4375-12.527343-23.011718-13.402343-36.019531-.804688-11.964844 3.054687-23.066406 5.714843-34.539063.269531-1.152343-2.554687-.765624-2.796875.265626-2.769531 11.976562-6.492187 23.34375-5.648437 35.832031.921875 13.714843 6.621093 26.769531 15.050781 37.507812 16.222656 20.671875 43.632812 32.539063 69.707031 27.253907 14.058594-2.855469 26.3125-11.128907 35.527344-21.9375 9.027344-10.585938 16.65625-22.621094 20.570313-36.058594 6.011718-20.667969.046874-41.8125-14.871094-57.058594-27.324219-27.910156-81.742188-35.890625-109.445313-4.292969-4.816406 5.492188-8.351562 11.925781-10.890625 18.753907-.386718 1.035156 2.429688.730468 2.796875-.265626" fill="#3b625f"/>
  <path d="M223.664062 62.714844c29.007813-42.992188 94.578126-19.878906 112.1875 21.894531 4.367188 10.351563 5.285157 21.773437 2.578126 32.667969-3.429688 13.835937-12.65625 25.441406-23.132813 34.730468-12.695313 11.238282-27.613281 19.246094-44.960937 18.417969-14.636719-.707031-28.347657-7.800781-38.835938-17.773437-12.402344-11.78125-20.300781-28.121094-21.496094-45.203125-.621094-8.851563.933594-17.757813 4.125-26.011719 2.5-6.488281 6.410156-12.503906 9.535156-18.722656.644532-1.273438-2.148437-1.074219-2.601562-.179688-5.746094 11.453125-12.117188 21.894532-13.628906 34.929688-1.613282 13.964844 2.015625 28.066406 8.902344 40.191406 13.648437 24.03125 41.441406 39.242188 69.015624 33.054688 15.25-3.421876 28.542969-13.632813 39.101563-24.769532 8.699219-9.183594 15.394531-20.410156 17.636719-32.96875 3.949218-22.160156-8.140625-43.265625-24.898438-56.890625-13.960937-11.34375-32.089844-18.585937-50.207031-18.304687-18.730469.289062-35.429687 9.203125-45.921875 24.757812-.765625 1.140625 2.046875 1.003906 2.601562.179688" fill="#3b625f"/>
  <path d="M240.285156 54.679688c38.332032-33.199219 96.367188 10.328124 95.261719 55.085937-.707031 28.414063-27.933594 48.117187-53.613281 53.640625C253.421875 169.527344 228.066406 149 219.429688 122.875c-4.058594-12.265625-4.273438-25.65625-.355469-37.972656 3.960937-12.429688 12.796875-20.789063 21.210937-30.222656 1.117188-1.257813-1.566406-1.367188-2.25-.605469-8.136718 9.121093-16.464844 17.109375-20.945312 28.804687-4.6875 12.230469-4.632813 25.921875-1.144532 38.433594 6.882813 24.613281 28.425782 44.640625 54.664063 44.855469 14.621094.125 29.148437-6.144531 41.242187-13.9375 10.1875-6.566407 18.738282-15.648438 23.289063-26.992188 8.246094-20.601562-.191406-43.660156-14.039063-59.640625-10.175781-11.734375-24.160156-20.683594-39.507812-23.609375-15.769531-3.011719-31.484375 1.632813-43.558594 12.085938-1.25 1.085937 1.496094 1.253906 2.25.605469" fill="#3b625f"/>
  <path d="M253.867188 51.011719c40.121093-20.699219 80.535156 25.574219 76.425781 64.40625-1.042969 9.890625-5.285157 19.148437-12.179688 26.320312-8.859375 9.210938-21.253906 13.953125-33.550781 16.40625-13.898438 2.777344-27.8125 1.941407-40.058594-5.714843-10.363281-6.472657-17.644531-17.042969-21.585937-28.457032-4.707031-13.660156-4.402344-28.925781.976562-42.332031 2.914063-7.28125 7.605469-13.769531 13.382813-19.039063 4.976562-4.53125 11.066406-7.777343 16.589844-11.589843 1.558593-1.074219-.789063-1.644531-1.742188-.984375-9.546875 6.59375-19.027344 12.113281-25.746094 21.917968-6.726562 9.824219-9.703125 21.78125-9.566406 33.59375.277344 23.566407 14.496094 46.691407 37.578125 53.785157 12.882813 3.960937 27.074219 1.902343 39.746094-1.90625 10.714843-3.214844 20.898437-8.785157 28.269531-17.328125 12.902344-14.929688 13.339844-35.96875 6.605469-53.722656-5.683594-14.984376-16.546875-28.417969-30.671875-36.160157-14.597656-7.992187-31.523438-7.761719-46.214844-.179687-1.671875.859375.753906 1.492187 1.742188.984375" fill="#3b625f"/>
  <g clip-path="url(#b)">
    <path d="M55.664062 35.261719C80.582031 55.472656 39.15625 103.691406 15.695312 65.1875.902344 41.867188 32.269531 17.394531 52.804688 33.46875l2.859374 1.792969" fill="#cba5a4"/>
  </g>
  <path d="M147.582031 256.089844c39.074219-28.210938 89.617188 15.15625 88.90625 57.367187-.175781 10.777344-4.167969 21.117188-11.136719 29.324219-9.367187 11.007812-22.996093 17.175781-36.585937 21.179688-13.617187 4.019531-28.082031 2.585937-40.355469-4.617188-11.050781-6.472656-19.195312-17.203125-23.945312-28.964844-5.398438-13.359375-6.144532-28.488281-1.742188-42.234375 2.371094-7.410156 6.476563-14.195312 11.707032-19.925781 4.070312-4.457031 9.003906-8.1875 13.40625-12.320312 1.210937-1.144532-1.519532-1.289063-2.253907-.597657-8.753906 8.214844-17.640625 15.324219-22.980469 26.425781-5.414062 11.222657-6.65625 24.046876-4.617187 36.257813 4.050781 24.246094 22.273437 45.640625 47.125 49.429687 14.050781 2.140626 28.570313-2.277343 41.148437-8.285156 10.6875-5.109375 20.359376-12.648437 26.515626-22.894531 10.847656-18.058594 6.917968-40.417969-3.550782-57.644531-8.46875-13.929688-21.707031-25.359375-37.199218-30.660156-15.761719-5.402344-32.742188-2.53125-46.179688 7.179687-1.535156 1.097656.789062 1.664063 1.738281.980469" fill="#cba5a4"/>
</svg>